<svg width="400" height="400" viewBox="0 0 400 400" fill="none" xmlns="http://www.w3.org/2000/svg">
<rect width="400" height="400" rx="120" fill="#2E6FF2"/>
<path d="M199.59 183.14C224.205 183.14 244.16 163.185 244.16 138.57C244.16 113.955 224.205 94 199.59 94C174.974 94 155.02 113.955 155.02 138.57C155.02 163.185 174.974 183.14 199.59 183.14Z" fill="white"/>
<path d="M203.999 201.18C181.259 198.89 160.219 214.52 155.839 236.96C150.939 262.09 168.029 285.94 193.079 289.64L191.609 299.63C190.989 303.83 195.319 307.02 199.139 305.17C213.169 298.38 239.279 281.93 243.689 252.05C247.379 227.01 229.479 203.76 204.009 201.19L203.999 201.18ZM215.589 245.54C215.589 254.38 208.429 261.54 199.589 261.54C190.749 261.54 183.589 254.38 183.589 245.54C183.589 236.7 190.749 229.54 199.589 229.54C208.429 229.54 215.589 236.7 215.589 245.54Z" fill="white"/>
</svg>
