<svg width="110" height="230" viewBox="0 0 110 230" fill="none" xmlns="http://www.w3.org/2000/svg">
<path d="M54.5895 98.14C79.2049 98.14 99.1595 78.1853 99.1595 53.57C99.1595 28.9547 79.2049 9 54.5895 9C29.9742 9 10.0195 28.9547 10.0195 53.57C10.0195 78.1853 29.9742 98.14 54.5895 98.14Z" fill="#121314"/>
<path d="M58.9994 116.18C36.2594 113.89 15.2194 129.52 10.8394 151.96C5.93941 177.09 23.0294 200.94 48.0794 204.64L46.6094 214.63C45.9894 218.83 50.3194 222.02 54.1394 220.17C68.1694 213.38 94.2794 196.93 98.6894 167.05C102.379 142.01 84.4794 118.76 59.0094 116.19L58.9994 116.18ZM70.5894 160.54C70.5894 169.38 63.4294 176.54 54.5894 176.54C45.7494 176.54 38.5894 169.38 38.5894 160.54C38.5894 151.7 45.7494 144.54 54.5894 144.54C63.4294 144.54 70.5894 151.7 70.5894 160.54Z" fill="#121314"/>
</svg>
