<svg width="40" height="40" viewBox="0 0 40 40" fill="none" xmlns="http://www.w3.org/2000/svg">
<path fill-rule="evenodd" clip-rule="evenodd" d="M10.705 10.1989C9.51369 6.37289 13.6505 3.10207 17.1036 5.10282L34.832 15.3746C38.3893 17.4357 38.3893 22.565 34.832 24.6261L17.1036 34.8979C13.6505 36.8987 9.51369 33.6278 10.705 29.8018L13.7569 20.0004L10.705 10.1989ZM16.4319 21.5004L13.5693 30.6937C13.1966 31.8909 14.4942 32.9426 15.5996 32.3021L33.328 22.0304C34.8907 21.125 34.8907 18.8758 33.328 17.9704L15.5996 7.69859C14.4942 7.05808 13.1966 8.10985 13.5693 9.30702L16.4319 18.5004L23.9157 18.5004C24.7441 18.5004 25.4157 19.1719 25.4157 20.0004C25.4157 20.8288 24.7441 21.5004 23.9157 21.5004H16.4319Z" fill="#2E6FF2"/>
<path fill-rule="evenodd" clip-rule="evenodd" d="M3.5 20.0004C3.5 19.1719 4.17157 18.5004 5 18.5004H9C9.82843 18.5004 10.5 19.1719 10.5 20.0004C10.5 20.8288 9.82843 21.5004 9 21.5004H5C4.17157 21.5004 3.5 20.8288 3.5 20.0004Z" fill="#2E6FF2"/>
<path fill-rule="evenodd" clip-rule="evenodd" d="M2.5 15.0004C2.5 14.1719 3.17157 13.5004 4 13.5004H8C8.82843 13.5004 9.5 14.1719 9.5 15.0004C9.5 15.8288 8.82843 16.5004 8 16.5004H4C3.17157 16.5004 2.5 15.8288 2.5 15.0004Z" fill="#2E6FF2"/>
<path fill-rule="evenodd" clip-rule="evenodd" d="M2.5 25.0004C2.5 24.1719 3.17157 23.5004 4 23.5004H8C8.82843 23.5004 9.5 24.1719 9.5 25.0004C9.5 25.8288 8.82843 26.5004 8 26.5004H4C3.17157 26.5004 2.5 25.8288 2.5 25.0004Z" fill="#2E6FF2"/>
</svg>
